<svg xmlns="http://www.w3.org/2000/svg" width="1280" height="800" viewBox="0 0 1280 800">
  <defs>
    <style>
      text { font-family: -apple-system, BlinkMacSystemFont, 'Segoe UI', sans-serif; }
    </style>
  </defs>

  <!-- Background -->
  <rect width="1280" height="800" fill="#f8fafc"/>

  <!-- Sidebar -->
  <rect x="0" y="0" width="240" height="800" fill="white" stroke="#e2e8f0" stroke-width="1"/>

  <!-- Sidebar header -->
  <rect x="0" y="0" width="240" height="60" fill="white" stroke="#e2e8f0" stroke-width="1"/>
  <!-- Shield icon -->
  <circle cx="22" cy="30" r="11" fill="#f1f5f9"/>
  <path d="M22 20 L13 24 L13 32 C13 37 17 41 22 43 C27 41 31 37 31 32 L31 24 Z" fill="#1e293b"/>
  <text x="38" y="28" font-size="13" font-weight="600" fill="#0f172a">SecureVault</text>
  <text x="38" y="44" font-size="11" fill="#64748b">Welcome, jdoe</text>

  <!-- Nav labels -->
  <text x="16" y="84" font-size="10" font-weight="600" fill="#94a3b8" letter-spacing="0.5">FOLDERS</text>

  <!-- All Secrets item (active) -->
  <rect x="8" y="90" width="224" height="30" rx="4" fill="#f1f5f9"/>
  <text x="16" y="110" font-size="13" fill="#0f172a">All Secrets</text>

  <!-- Folder items -->
  <text x="16" y="138" font-size="13" fill="#475569">Infrastructure</text>
  <text x="16" y="162" font-size="13" fill="#475569">Development</text>
  <text x="16" y="186" font-size="13" fill="#475569">Cloud Services</text>
  <text x="16" y="210" font-size="13" fill="#475569">Databases</text>
  <text x="16" y="234" font-size="13" fill="#475569">Third-party APIs</text>

  <!-- Admin section -->
  <rect x="0" y="680" width="240" height="1" fill="#e2e8f0"/>
  <text x="16" y="698" font-size="10" font-weight="600" fill="#94a3b8" letter-spacing="0.5">ADMIN</text>
  <!-- Users icon -->
  <rect x="14" y="706" width="12" height="10" rx="1" fill="none" stroke="#475569" stroke-width="1.2"/>
  <circle cx="20" cy="703" r="3" fill="none" stroke="#475569" stroke-width="1.2"/>
  <text x="32" y="714" font-size="13" fill="#475569">Users</text>

  <!-- Audit icon -->
  <rect x="14" y="726" width="10" height="12" rx="1" fill="none" stroke="#475569" stroke-width="1.2"/>
  <line x1="16" y1="730" x2="22" y2="730" stroke="#475569" stroke-width="1"/>
  <line x1="16" y1="734" x2="22" y2="734" stroke="#475569" stroke-width="1"/>
  <text x="32" y="735" font-size="13" fill="#475569">Audit Log</text>

  <!-- Sign out -->
  <rect x="0" y="754" width="240" height="1" fill="#e2e8f0"/>
  <text x="32" y="776" font-size="13" fill="#94a3b8">Sign Out</text>

  <!-- Main content -->
  <!-- Header bar -->
  <rect x="240" y="0" width="1040" height="64" fill="white" stroke="#e2e8f0" stroke-width="1"/>

  <!-- Search input -->
  <rect x="260" y="16" width="380" height="34" rx="6" fill="white" stroke="#cbd5e1" stroke-width="1.5"/>
  <!-- Search icon -->
  <circle cx="278" cy="33" r="6" fill="none" stroke="#94a3b8" stroke-width="1.5"/>
  <line x1="283" y1="38" x2="288" y2="43" stroke="#94a3b8" stroke-width="1.5" stroke-linecap="round"/>
  <text x="296" y="37" font-size="13" fill="#94a3b8">Search secrets...</text>

  <!-- New Secret button -->
  <rect x="1152" y="14" width="108" height="36" rx="6" fill="#1e293b"/>
  <!-- Plus icon -->
  <line x1="1168" y1="32" x2="1180" y2="32" stroke="white" stroke-width="1.5"/>
  <line x1="1174" y1="26" x2="1174" y2="38" stroke="white" stroke-width="1.5"/>
  <text x="1185" y="37" font-size="13" font-weight="500" fill="white">New Secret</text>

  <!-- Secret list items -->
  <!-- Item 1 -->
  <rect x="260" y="84" width="996" height="72" rx="8" fill="white" stroke="#e2e8f0" stroke-width="1"/>
  <text x="280" y="110" font-size="14" font-weight="500" fill="#0f172a">Production Database — PostgreSQL</text>
  <text x="280" y="128" font-size="12" fill="#94a3b8">postgres</text>
  <text x="280" y="144" font-size="12" fill="#94a3b8">db.company.internal:5432</text>
  <rect x="1160" y="96" width="60" height="20" rx="10" fill="#f1f5f9"/>
  <text x="1190" y="111" text-anchor="middle" font-size="11" fill="#475569">Password</text>
  <text x="1166" y="134" font-size="12" fill="#94a3b8">#production</text>

  <!-- Item 2 -->
  <rect x="260" y="166" width="996" height="72" rx="8" fill="white" stroke="#e2e8f0" stroke-width="1"/>
  <text x="280" y="192" font-size="14" font-weight="500" fill="#0f172a">AWS Root Access Keys</text>
  <text x="280" y="210" font-size="12" fill="#94a3b8">AKIA••••••••••••</text>
  <rect x="1160" y="178" width="58" height="20" rx="10" fill="#f1f5f9"/>
  <text x="1189" y="193" text-anchor="middle" font-size="11" fill="#475569">API Key</text>
  <text x="1166" y="216" font-size="12" fill="#94a3b8">#aws  #cloud</text>

  <!-- Item 3 -->
  <rect x="260" y="248" width="996" height="72" rx="8" fill="white" stroke="#e2e8f0" stroke-width="1"/>
  <text x="280" y="274" font-size="14" font-weight="500" fill="#0f172a">GitHub Actions Deploy Token</text>
  <text x="280" y="292" font-size="12" fill="#94a3b8">github-actions-bot</text>
  <text x="280" y="308" font-size="12" fill="#94a3b8">https://github.com</text>
  <rect x="1155" y="260" width="64" height="20" rx="10" fill="#f1f5f9"/>
  <text x="1187" y="275" text-anchor="middle" font-size="11" fill="#475569">Token</text>
  <text x="1166" y="298" font-size="12" fill="#94a3b8">#github  #ci</text>

  <!-- Item 4 -->
  <rect x="260" y="330" width="996" height="72" rx="8" fill="white" stroke="#e2e8f0" stroke-width="1"/>
  <text x="280" y="356" font-size="14" font-weight="500" fill="#0f172a">Stripe Live Secret Key</text>
  <text x="280" y="374" font-size="12" fill="#94a3b8">sk_live_••••••••••••••••</text>
  <rect x="1155" y="342" width="64" height="20" rx="10" fill="#f1f5f9"/>
  <text x="1187" y="357" text-anchor="middle" font-size="11" fill="#475569">API Key</text>
  <text x="1166" y="380" font-size="12" fill="#94a3b8">#stripe  #payments</text>

  <!-- Item 5 -->
  <rect x="260" y="412" width="996" height="72" rx="8" fill="white" stroke="#e2e8f0" stroke-width="1"/>
  <text x="280" y="438" font-size="14" font-weight="500" fill="#0f172a">Nginx TLS Certificate Key</text>
  <text x="280" y="456" font-size="12" fill="#94a3b8">nginx-tls</text>
  <rect x="1158" y="424" width="60" height="20" rx="10" fill="#f1f5f9"/>
  <text x="1188" y="439" text-anchor="middle" font-size="11" fill="#475569">Certificate</text>
  <text x="1166" y="462" font-size="12" fill="#94a3b8">#infrastructure</text>

  <!-- Item 6 -->
  <rect x="260" y="494" width="996" height="72" rx="8" fill="white" stroke="#e2e8f0" stroke-width="1"/>
  <text x="280" y="520" font-size="14" font-weight="500" fill="#0f172a">SMTP Relay Credentials</text>
  <text x="280" y="538" font-size="12" fill="#94a3b8">smtp-relay@company.internal</text>
  <rect x="1155" y="506" width="64" height="20" rx="10" fill="#f1f5f9"/>
  <text x="1187" y="521" text-anchor="middle" font-size="11" fill="#475569">Password</text>
  <text x="1166" y="544" font-size="12" fill="#94a3b8">#email</text>

  <!-- Subtle count text -->
  <text x="760" y="610" text-anchor="middle" font-size="13" fill="#94a3b8">Showing 6 of 24 secrets</text>
</svg>
